<svg width="20" height="20" viewBox="0 0 20 20" fill="none" xmlns="http://www.w3.org/2000/svg">
<circle cx="10" cy="10" r="10" fill="black"/>
<path fill-rule="evenodd" clip-rule="evenodd" d="M9.87465 4.20183C7.66827 4.26808 5.9 6.07752 5.9 8.29995L5.8995 11.1185L5.00077 12.4671C4.73494 12.8659 5.02078 13.4 5.5 13.4H14.5L14.5589 13.3972C15.0021 13.3557 15.254 12.8492 14.9992 12.4671L14.0995 11.118L14.1 8.29995C14.1 6.03558 12.2644 4.19995 10 4.19995L9.87465 4.20183ZM10.0002 5.39995C11.6018 5.39995 12.9002 6.69832 12.9002 8.29995V11.2999L12.9043 11.3706C12.9154 11.464 12.9484 11.5539 13.0009 11.6328L13.3792 12.1999H6.62067L6.9994 11.6328C7.0651 11.5342 7.10017 11.4184 7.10017 11.2999V8.29995C7.10017 6.69832 8.39854 5.39995 10.0002 5.39995ZM11.4996 13.8H8.49957V14.3C8.49957 15.1284 9.17115 15.8 9.99957 15.8C10.828 15.8 11.4996 15.1284 11.4996 14.3V13.8Z" fill="white"/>
</svg>
