<svg width="27" height="29" viewBox="0 0 27 29" fill="none" xmlns="http://www.w3.org/2000/svg">
<path fill-rule="evenodd" clip-rule="evenodd" d="M8.8272 2.9292H18.2139C21.6736 2.9292 23.6 4.97518 23.6 8.48092V20.3545C23.6 23.9177 21.6736 25.9177 18.2139 25.9177H8.8272C5.4224 25.9177 3.44 23.9177 3.44 20.3545V8.48092C3.44 4.97518 5.4224 2.9292 8.8272 2.9292ZM9.1296 8.28552V8.27403H12.4773C12.96 8.27403 13.352 8.67633 13.352 9.16943C13.352 9.67633 12.96 10.0786 12.4773 10.0786H9.1296C8.64688 10.0786 8.256 9.67633 8.256 9.18207C8.256 8.68782 8.64688 8.28552 9.1296 8.28552ZM9.1296 15.274H17.9104C18.392 15.274 18.784 14.8717 18.784 14.3775C18.784 13.8832 18.392 13.4798 17.9104 13.4798H9.1296C8.64688 13.4798 8.256 13.8832 8.256 14.3775C8.256 14.8717 8.64688 15.274 9.1296 15.274ZM9.1296 20.5269H17.9104C18.3573 20.4809 18.6944 20.089 18.6944 19.6303C18.6944 19.1591 18.3573 18.7683 17.9104 18.7223H9.1296C8.7936 18.6878 8.4688 18.8487 8.2896 19.1476C8.1104 19.4349 8.1104 19.8143 8.2896 20.1131C8.4688 20.4005 8.7936 20.5729 9.1296 20.5269Z" fill="#979797"/>
</svg>
