<svg width="112" height="112" viewBox="0 0 112 112" fill="none" xmlns="http://www.w3.org/2000/svg">
<g clip-path="url(#clip0_1265_2129)">
<path d="M71.8811 64.6177C71.6418 63.2189 71.2347 61.8538 70.6686 60.5516C69.0237 56.685 66.203 53.4284 62.6029 51.2391C59.7594 49.5715 56.5145 48.7029 53.2142 48.726C49.9138 48.7491 46.6815 49.663 43.8619 51.3702C41.2351 52.9372 39.1062 55.2104 37.7203 57.9283C37.2486 58.8573 36.852 59.8222 36.5342 60.8139C35.6763 63.3893 35.3485 66.1102 35.5704 68.8144C35.7923 71.5186 36.5593 74.1507 37.8258 76.5534C38.6922 78.0238 40.015 79.1745 41.5951 79.8324C42.3837 80.1593 43.2387 80.2965 44.0906 80.2327C44.9425 80.1689 45.7672 79.9059 46.4978 79.4652C47.3016 78.8305 47.9018 77.9762 48.2249 77.0069C48.5479 76.0377 48.5798 74.9958 48.3165 74.0088C47.7043 71.501 47.7679 68.8769 48.501 66.4014C48.792 65.5922 49.2602 64.8574 49.8716 64.2504C50.2515 63.8862 50.6875 63.5851 51.1632 63.3585C52.1564 62.8617 53.2784 62.6786 54.379 62.8338C55.3339 63.0391 56.2262 63.4673 56.9823 64.083C57.7385 64.6987 58.3368 65.4843 58.7281 66.3752C59.4601 68.1213 59.845 69.9921 59.8616 71.884C59.8751 80.4271 58.6046 88.9242 56.0923 97.0933C55.855 97.9327 55.6178 98.746 55.4069 99.5854C55.1961 100.425 54.8798 101.028 55.4069 101.658C55.591 101.918 55.8476 102.118 56.145 102.235C57.4102 102.733 58.4118 101.973 59.2553 101.133C64.0433 96.0291 67.5718 89.8861 69.5615 83.1901C70.3897 80.7365 71.0502 78.23 71.5384 75.6877C72.2915 72.0191 72.4251 68.2513 71.9338 64.539" fill="#008375"/>
<path d="M107.307 25.7412C107.297 25.4527 107.229 25.1691 107.105 24.9079C106.982 24.6467 106.806 24.4132 106.589 24.2217C106.372 24.0303 106.118 23.8848 105.843 23.7943C105.567 23.7037 105.276 23.67 104.987 23.6951C103.773 23.8623 102.596 24.2348 101.508 24.7968C79.3026 32.7058 55.4579 34.9427 32.1586 31.3024C28.2312 30.7253 24.251 29.9646 20.2973 29.335C17.8196 28.9415 15.3682 28.3907 12.8905 28.207C10.6502 27.7792 8.33033 28.2203 6.4063 29.44C5.41793 30.5217 4.80499 31.8908 4.65787 33.3455C4.51075 34.8002 4.83724 36.2635 5.58919 37.5195C7.26804 40.381 9.70189 42.7307 12.6269 44.3137C15.3417 46.2283 18.5545 47.3215 21.8788 47.4616C30.665 46.8845 39.4512 46.0101 48.2374 44.8384C63.13 42.9234 78.7079 41.1133 92.7043 35.3684C97.3348 33.5357 101.697 31.0917 105.673 28.1021C106.384 27.5774 107.412 26.6856 107.412 25.6625" fill="#008375"/>
<path d="M44.8372 18.3171C44.8372 20.5782 45.7397 22.7467 47.3462 24.3456C48.9528 25.9444 51.1317 26.8426 53.4037 26.8426C55.6757 26.8426 57.8546 25.9444 59.4611 24.3456C61.0677 22.7467 61.9702 20.5782 61.9702 18.3171C61.969 17.6111 61.8162 16.9135 61.5221 16.271C60.7841 14.7233 59.9406 13.9625 60.046 12.1C60.046 9.60796 56.9094 9.4768 55.1697 9.4768C53.2357 9.41408 51.3135 9.80033 49.5553 10.6048C48.1899 11.2965 47.0344 12.3378 46.2078 13.6216C45.3411 14.9319 44.8658 16.4601 44.8372 18.0286V18.2384" fill="#D50037"/>
</g>
<defs>
<clipPath id="clip0_1265_2129">
<rect width="102.667" height="92.8889" fill="white" transform="translate(4.66663 9.55566)"/>
</clipPath>
</defs>
</svg>
