<svg width="112" height="112" viewBox="0 0 112 112" fill="none" xmlns="http://www.w3.org/2000/svg">
<g clip-path="url(#clip0_1265_2131)">
<path d="M106.737 41.9815C107.706 39.0575 107.474 35.8685 106.092 33.1155C104.711 30.3624 102.292 28.2705 99.3692 27.2994L38.5277 6.8744C37.0796 6.38292 35.548 6.1849 34.0225 6.29187C32.4969 6.39885 31.008 6.8087 29.6426 7.49747" fill="white"/>
<path d="M29.6426 7.49756C26.8875 8.87636 24.7926 11.2927 23.8185 14.2156L5.26263 69.9915C4.30166 72.9157 4.53723 76.1014 5.91786 78.8525C7.29848 81.6036 9.71192 83.6964 12.6308 84.6736L73.4994 105.099C74.9486 105.584 76.4794 105.779 78.004 105.672C79.5287 105.565 81.0173 105.159 82.3845 104.476C83.7489 103.797 84.9643 102.854 85.9597 101.7C86.9551 100.547 87.7104 99.2064 88.1815 97.7575L106.764 41.9816" fill="white"/>
<path d="M59.4134 61.0793C56.0638 64.8327 51.8789 67.7463 47.1963 69.5852L44.4874 70.6416V44.7989L47.1963 45.8553C51.885 47.6844 56.0789 50.5886 59.4405 54.3341C61.5679 50.8535 62.9094 46.9502 63.3712 42.8971C63.8329 38.844 63.4038 34.739 62.1138 30.869C60.8238 26.999 58.7041 23.4575 55.9028 20.4921C53.1016 17.5267 49.6864 15.2089 45.896 13.7009L37.0109 10.667C36.07 10.3582 35.0775 10.238 34.0901 10.3133C33.1028 10.3886 32.1399 10.6579 31.2567 11.1058C30.3736 11.5537 29.5874 12.1714 28.9432 12.9234C28.2991 13.6755 27.8096 14.5473 27.5027 15.4888L8.89272 71.3188C8.2851 73.2408 8.45893 75.3248 9.37659 77.1196C10.2943 78.9144 11.8819 80.2755 13.7958 80.9083L56.0273 94.9945C60.2393 90.497 62.849 84.7349 63.4515 78.6026C64.0539 72.4702 62.6154 66.3105 59.3592 61.0793H59.4134ZM34.9792 43.2548V72.2398H30.7805V43.3361L34.9792 43.2548Z" fill="#2293C8"/>
<path d="M56.9754 57.6931C54.5968 54.9151 51.7098 52.6166 48.4695 50.9209V64.4653C51.7236 62.7559 54.6129 60.4279 56.9754 57.6118" fill="#E43D30"/>
<path d="M98.0419 31.0105L59.2778 18.062C64.1471 23.3867 67.0662 30.2055 67.5583 37.4041C68.0503 44.6027 66.0861 51.7553 61.9867 57.693C65.9701 63.4533 67.9478 70.364 67.6149 77.3596C67.282 84.3551 64.657 91.0469 60.1447 96.4029L74.7185 101.252C75.6592 101.564 76.6525 101.687 77.641 101.614C78.6295 101.54 79.5937 101.271 80.4777 100.823C81.3618 100.375 82.1483 99.7557 82.7918 99.0017C83.4352 98.2476 83.9229 97.3736 84.2266 96.43L102.918 40.627C103.534 38.7086 103.367 36.6245 102.454 34.8284C101.541 33.0324 99.9551 31.6698 98.0419 31.0376V31.0105ZM87.7753 72.1855H82.5201L71.6845 57.693L82.5201 43.2276H87.9378L77.1023 57.7472L87.7753 72.1855Z" fill="#215C9C"/>
</g>
<defs>
<clipPath id="clip0_1265_2131">
<rect width="102.667" height="99.4431" fill="white" transform="translate(4.66675 6.27832)"/>
</clipPath>
</defs>
</svg>
