<svg width="112" height="112" viewBox="0 0 112 112" fill="none" xmlns="http://www.w3.org/2000/svg">
<g clip-path="url(#clip0_1265_2135)">
<path d="M102.667 89.284C102.666 91.0337 102.321 92.7661 101.65 94.3823C100.98 95.9985 99.9979 97.4668 98.76 98.7034C97.5222 99.9401 96.0529 100.921 94.4361 101.589C92.8192 102.258 91.0865 102.602 89.3368 102.601H22.6651C19.1314 102.602 15.7418 101.2 13.2418 98.703C10.7417 96.2057 9.33583 92.8177 9.33337 89.284V22.7107C9.33633 19.1775 10.7425 15.7901 13.2425 13.2935C15.7426 10.7969 19.1319 9.39549 22.6651 9.39746H89.3368C91.0863 9.39625 92.8188 9.73965 94.4355 10.4081C96.0522 11.0765 97.5215 12.0568 98.7593 13.2931C99.9971 14.5293 100.979 15.9973 101.65 17.6132C102.32 19.2291 102.666 20.9612 102.667 22.7107V89.284Z" fill="#FFE400"/>
<path d="M76.0181 65.3227C75.5997 62.074 73.9755 59.1013 71.4678 56.9941C71.0966 56.6675 70.6939 56.3631 70.2485 56.0012C70.6197 55.7229 70.9277 55.5095 71.2154 55.2701C73.0203 53.7761 74.4146 51.8466 75.2665 49.6638C76.0733 47.5999 76.3291 45.3615 76.0088 43.1687C75.6538 40.5014 74.475 38.0114 72.6369 36.0463C71.3269 34.5875 69.7085 33.4389 67.8991 32.6837C66.1419 31.9722 64.261 31.6159 62.3653 31.6352H41.1206C40.9741 31.6268 40.8273 31.6268 40.6808 31.6352C40.4478 31.6458 40.2282 31.7474 40.0693 31.9181C39.9104 32.0888 39.8248 32.3151 39.8308 32.5482C39.8308 32.6967 39.8308 32.8433 39.8308 32.9899V78.892C39.8308 79.1221 39.8179 79.3541 39.8308 79.5842C39.8404 79.7744 39.916 79.9553 40.0448 80.0956C40.1736 80.2359 40.3473 80.3267 40.536 80.3525C40.6819 80.3701 40.829 80.3757 40.9758 80.3692H62.9777C65.1934 80.3778 67.3714 79.7955 69.2872 78.6823C72.0245 77.1441 74.1372 74.6966 75.2591 71.764C76.0689 69.7197 76.3306 67.4993 76.0181 65.3227V65.3227ZM59.1103 66.9743H55.1408V45.0764H59.0657C59.0657 45.0764 59.0509 45.0653 59.0657 45.0653V45.0764H59.1103V66.9743Z" fill="#1E1719"/>
</g>
<defs>
<clipPath id="clip0_1265_2135">
<rect width="93.3333" height="93.2053" fill="white" transform="translate(9.33337 9.39746)"/>
</clipPath>
</defs>
</svg>
