<svg width="47" height="36" viewBox="0 0 47 36" fill="none" xmlns="http://www.w3.org/2000/svg">
<path d="M45.6014 18.528L45.207 18.2582C44.4346 17.5055 43.519 16.9453 42.5248 16.6171C41.5306 16.289 40.4821 16.2009 39.4533 16.3591C37.6619 16.5274 35.938 17.177 34.438 18.2487L34.4375 18.1542C34.4482 17.4114 34.4958 16.6698 34.5802 15.9326C34.6422 15.1644 34.7151 14.3963 34.7117 13.6638C34.7317 12.9625 34.6207 12.2639 34.3855 11.6098C34.3574 11.5324 34.3071 11.4668 34.2421 11.4224C34.177 11.3781 34.1006 11.3574 34.024 11.3634C33.2048 11.4505 32.4146 11.7369 31.7124 12.201L31.5395 12.6034C31.5417 13.7277 31.4334 14.8488 31.2163 15.9481C31.1926 16.0444 31.1638 16.1392 31.1303 16.232C30.8704 19.0608 30.8836 21.9113 31.1694 24.7376C31.1705 24.9738 31.6419 25.3379 31.9702 25.4781C32.7207 25.4946 33.4653 25.3339 34.1524 25.0073L34.4036 25.0062C34.4536 24.9988 34.5018 24.9805 34.545 24.9524C34.5883 24.9243 34.6258 24.8869 34.6552 24.8425C34.6847 24.7981 34.7055 24.7477 34.7163 24.6944C34.7271 24.641 34.7277 24.5858 34.7181 24.5322L34.7149 23.8352C35.0082 22.6212 35.5976 21.515 36.4217 20.6321C37.2457 19.7492 38.274 19.1222 39.3991 18.8165C39.9615 18.6821 40.5469 18.7104 41.0962 18.8987C41.6454 19.087 42.1392 19.4286 42.5277 19.8889C42.7832 21.0622 42.6047 22.2967 42.0302 23.329C41.2211 24.7773 39.9592 25.8643 38.4729 26.3932C36.7266 27.0755 34.8698 27.3654 33.0159 27.2453C32.9173 27.1867 30.9886 25.7898 30.9886 25.7898C29.2051 24.3301 27.2716 23.0983 25.2268 22.1187C24.7566 21.8379 24.3157 21.5033 23.9116 21.1206L23.7251 20.9443C22.6285 19.9807 20.4918 18.4784 18.7933 17.2694L17.8837 16.6002L17.8828 16.3994C17.8825 16.3404 18.9715 15.6501 18.9715 15.6501C19.8 15.2026 20.575 14.6476 21.2793 13.9974L21.4862 13.8665L25.1673 11.5814C28.6962 9.46232 32.7044 7.05754 34.8014 4.68518L34.898 4.31852L34.8965 3.99954C35.0197 3.5643 35.0176 3.09877 34.8904 2.66468C34.8762 2.58885 34.8415 2.51926 34.7907 2.4648C34.7399 2.41034 34.6753 2.37346 34.605 2.35883C32.955 2.18923 30.8411 3.26219 28.917 5.23209C28.5611 5.58975 28.1621 5.89358 27.7307 6.13536L27.4366 6.30212C25.2583 7.62345 20.5222 10.8704 18.0183 12.6303C18.2394 9.08517 18.6498 5.55698 19.2475 2.06339L19.18 1.65022L18.9155 1.13164L18.7172 0.754517C18.3381 0.556771 17.9022 0.529083 17.5045 0.677438L17.003 0.880558L16.338 1.14352C16.2746 1.15841 16.2156 1.19005 16.1663 1.23563C16.1169 1.28121 16.0788 1.33931 16.0553 1.40472C14.7132 5.40514 13.9121 9.59458 13.677 13.8434C11.8299 12.6022 9.92143 11.4713 7.96016 10.4557V10.4557L7.8291 10.4563C7.3502 10.3295 6.89729 10.1073 6.49361 9.80091L5.58417 9.16717L4.18174 8.20492L3.80997 8.11214C2.9968 8.3944 2.27541 8.9224 1.7309 9.63384C1.68956 9.70903 1.66735 9.79471 1.66651 9.88221C1.6773 10.0025 1.69981 10.1212 1.73367 10.2363L1.80062 10.5431L1.86702 10.7319C3.11085 11.8497 4.47594 12.7995 5.93207 13.5602L7.84843 14.65L10.7943 16.3612L11.2987 16.796L11.6383 17.007L11.7038 17.0067C10.92 17.5656 6.39177 20.8824 6.39177 20.8824L3.54009 23.022C3.0171 23.3353 2.47881 23.6178 1.92756 23.8682C1.39725 24.0718 0.950469 24.4713 0.665813 24.9963L0.590178 25.1738L0.667174 25.2916L0.886428 25.4678L1.17131 25.6673L1.48907 25.8903L1.77331 25.948C2.68185 25.8105 3.55838 25.4899 4.35745 25.0029C5.61066 24.3946 9.00798 22.158 10.4671 21.2062L11.0878 20.7899C11.3838 20.7452 11.6587 20.599 11.8722 20.3728C12.2827 20.0415 12.72 19.7508 13.1788 19.5044C13.1788 19.5044 13.4185 19.3615 13.6254 19.2424L13.6263 19.4315C13.6178 23.1278 13.9053 26.8181 14.4853 30.4613V30.4613L14.4859 30.5794C14.827 31.3876 15.0837 32.2343 15.2511 33.1039L15.8065 35.1097L15.9712 35.298C16.553 35.6712 17.2199 35.8605 17.8959 35.8443L18.0598 35.8436L18.1569 35.595C18.2095 35.2912 18.2337 34.9824 18.2291 34.6733C18.2274 34.3071 18.2256 33.9054 18.2233 33.4092L18.22 32.6886C17.9969 29.3228 17.7778 24.4212 17.7631 21.2317L17.7619 20.9718L20.6104 22.896C24.5549 25.6304 30.4719 29.7851 34.1138 30.867C34.2043 30.8957 34.3001 30.8986 34.3918 30.8754C34.4836 30.8522 34.5682 30.8037 34.6375 30.7346L35.1927 30.354L35.291 30.3536C35.4133 30.2455 35.5103 30.1077 35.5741 29.9514C35.6379 29.7951 35.6667 29.6247 35.6582 29.4541C38.6828 29.2866 42.9037 28.0031 45.1503 24.9212C45.9527 23.8043 46.3918 22.432 46.3993 21.017C46.4436 20.1544 46.173 19.3072 45.6457 18.6578" fill="#FCAF17"/>
</svg>
