<svg width="112" height="112" viewBox="0 0 112 112" fill="none" xmlns="http://www.w3.org/2000/svg">
<path d="M105.559 56.9885L104.679 56.3799C102.956 54.686 100.911 53.4217 98.6875 52.6764C96.464 51.9311 94.1162 51.7229 91.8101 52.0666C87.7956 52.4252 83.9273 53.8623 80.5563 56.2475V56.0359C80.588 54.3721 80.7023 52.7115 80.8988 51.061C81.0456 49.341 81.2169 47.621 81.2169 45.9804C81.2688 44.4096 81.0275 42.8436 80.5074 41.376C80.4452 41.2023 80.3333 41.0548 80.1881 40.9548C80.0428 40.8548 79.8718 40.8077 79.7001 40.8203C77.8643 41.007 76.0912 41.6403 74.5135 42.6726L74.1221 43.5723C74.1155 46.0906 73.8613 48.6009 73.3637 51.061C73.3095 51.2765 73.2442 51.4885 73.168 51.6961C72.5568 58.0297 72.5568 64.415 73.168 70.7487C73.168 71.2779 74.22 72.0982 74.9539 72.4158C76.6348 72.4604 78.3046 72.1081 79.8469 71.3837H80.4095C80.5217 71.3678 80.6297 71.3274 80.727 71.2648C80.8242 71.2022 80.9086 71.1188 80.975 71.0198C81.0414 70.9207 81.0884 70.808 81.1132 70.6886C81.138 70.5692 81.1399 70.4455 81.119 70.3253V68.764C81.7885 66.0477 83.1203 63.5758 84.9752 61.6068C86.8301 59.6377 89.1399 58.2437 91.6633 57.5706C92.9245 57.2753 94.2354 57.3448 95.4638 57.7723C96.6923 58.1997 97.7948 58.9699 98.6602 60.0051C99.2204 62.6359 98.8078 65.3993 97.5104 67.7056C95.683 70.9416 92.8453 73.3633 89.5104 74.5327C85.5918 76.0429 81.4295 76.6732 77.278 76.3851C77.0579 76.2528 72.7521 73.1038 72.7521 73.1038C68.772 69.8158 64.4539 67.0365 59.8836 64.8212C58.8333 64.1874 57.8491 63.4333 56.9478 62.572L56.5319 62.175C54.0855 60.0052 49.3148 56.618 45.5228 53.8925L43.4922 52.3841V51.9343C43.4922 51.802 45.9387 50.2672 45.9387 50.2672C47.7991 49.2733 49.5408 48.0381 51.1252 46.5889L51.59 46.2979L59.8591 41.2172C67.7857 36.507 76.7888 31.1617 81.5105 25.8693L81.7306 25.049V24.3345C82.011 23.3608 82.011 22.318 81.7306 21.3444C81.6997 21.1744 81.6227 21.0181 81.5094 20.8956C81.3961 20.7731 81.2517 20.6898 81.0946 20.6563C77.4004 20.2594 72.6542 22.641 68.324 27.0337C67.523 27.8311 66.626 28.5076 65.6573 29.0447L64.9967 29.4152C60.1038 32.3525 49.4616 39.5766 43.8347 43.493C44.3666 35.5542 45.3223 27.6554 46.6971 19.836L46.5503 18.9098L45.9632 17.7455L45.5228 16.8987C44.6756 16.4518 43.6995 16.3853 42.8072 16.7135L41.6818 17.1633L40.1895 17.7455C40.0473 17.7782 39.9148 17.8485 39.8038 17.9501C39.6928 18.0516 39.6067 18.1814 39.5534 18.3277C36.5058 27.2747 34.6683 36.6506 34.0977 46.1655C29.9731 43.3662 25.7099 40.8133 21.3271 38.5181V38.5181H21.0336C19.9621 38.2291 18.9499 37.7266 18.0489 37.0362L16.0183 35.6073L12.8868 33.4374L12.055 33.2257C10.2306 33.8496 8.60925 35.0249 7.38222 36.6128C7.28884 36.7808 7.2382 36.9725 7.23543 37.1685C7.25834 37.438 7.30754 37.7041 7.38222 37.9624L7.52902 38.6504L7.6758 39.0738C10.4504 41.5906 13.4984 43.7322 16.7522 45.4511L21.0336 47.912L27.6146 51.7755L28.74 52.7546L29.4984 53.2309H29.6451C27.8837 54.4746 17.7063 61.8575 17.7063 61.8575L11.2966 66.6206C10.1219 67.3171 8.91317 67.9442 7.6758 68.4994C6.48583 68.9501 5.48092 69.8403 4.83788 71.0133L4.66663 71.4102L4.83788 71.6748L5.32719 72.0718L5.96326 72.5216L6.67274 73.0244L7.30883 73.1567C9.34535 72.858 11.3121 72.1489 13.107 71.0662C15.9204 69.7166 23.5534 64.7418 26.8317 62.6248L28.2262 61.6987C28.8898 61.6017 29.5072 61.2771 29.9877 60.7726C30.9106 60.0346 31.8932 59.388 32.9234 58.8408C32.9234 58.8408 33.4617 58.5233 33.9265 58.2586V58.682C33.8694 66.9616 34.4751 75.2309 35.7369 83.3974V83.3974V83.6621C36.4927 85.4759 37.0589 87.3752 37.4249 89.3249L38.6482 93.8234L39.0152 94.2468C40.3146 95.0888 41.8064 95.5197 43.321 95.4905H43.6879L43.9081 94.9349C44.0291 94.2548 44.0864 93.5633 44.0794 92.8708C44.0794 92.0505 44.0794 91.1508 44.0794 90.0394V88.4252C43.6145 80.8835 43.1742 69.9019 43.1742 62.7572V62.175L49.535 66.5147C58.3423 72.6804 71.5533 82.0479 79.7001 84.5089C79.9024 84.5741 80.1169 84.5815 80.3226 84.5305C80.5284 84.4795 80.7185 84.3718 80.8744 84.2178L82.1221 83.371H82.3423C82.6173 83.1301 82.836 82.8225 82.9805 82.473C83.1251 82.1236 83.1914 81.7423 83.1741 81.3599C89.9508 81.0159 99.4187 78.1844 104.483 71.3043C106.292 68.8108 107.289 65.7413 107.321 62.572C107.429 60.6402 106.832 58.7397 105.657 57.2796" fill="#FCAF17"/>
</svg>
