<svg width="35" height="42" viewBox="0 0 35 42" fill="none" xmlns="http://www.w3.org/2000/svg">
<g clip-path="url(#clip0_815_144)">
<path d="M25.4996 0.567258L17.3988 4.6882L9.26044 0.64209L17.4511 16.0366L25.4996 0.567258Z" fill="#FFB71B"/>
<path d="M28.4515 12.4286L34.2333 9.98021L34.1957 1.81314L24.1492 6.18049L18.5947 16.7475C20.7514 16.9861 22.7351 18.0404 24.1395 19.6945C25.5438 21.3486 26.2624 23.4771 26.148 25.6439C26.0335 27.8107 25.0947 29.8517 23.5239 31.3486C21.953 32.8455 19.8693 33.685 17.6995 33.695C15.5297 33.705 13.4382 32.8848 11.8537 31.4024C10.2691 29.92 9.31154 27.8878 9.17711 25.7221C9.04267 23.5565 9.74149 21.4214 11.1305 19.7544C12.5196 18.0875 14.4935 17.0149 16.6479 16.7565L10.9964 6.2411L0.957642 1.96631L0.995277 10.1334L6.89427 12.5279C4.35098 14.7718 2.55285 17.7381 1.7399 21.0309C0.926944 24.3237 1.13782 27.786 2.34455 30.9557C3.55128 34.1254 5.69636 36.8516 8.49327 38.77C11.2902 40.6885 14.6058 41.708 17.9974 41.6924C21.389 41.6767 24.6951 40.6267 27.4743 38.6825C30.2534 36.7384 32.3732 33.9926 33.5507 30.8119C34.7282 27.6312 34.9073 24.1671 34.064 20.8819C33.2207 17.5968 31.3952 14.6471 28.8313 12.4268L28.4515 12.4286Z" fill="#FFB71B"/>
</g>
<defs>
<clipPath id="clip0_815_144">
<rect width="33.3333" height="41.1681" fill="white" transform="translate(0.713562 0.681641) rotate(-0.264025)"/>
</clipPath>
</defs>
</svg>
