<svg width="112" height="112" viewBox="0 0 112 112" fill="none" xmlns="http://www.w3.org/2000/svg">
<g clip-path="url(#clip0_1265_2134)">
<path d="M74.188 9.89209L55.9999 19.0393L37.8119 9.89209L55.9999 44.46L74.188 9.89209Z" fill="#FFB71B"/>
<path d="M80.6778 36.4915L93.654 31.0669V12.7725L71.1052 22.4515L58.5541 46.0641C63.3825 46.6207 67.8152 49.0029 70.9438 52.7225C74.0725 56.442 75.6601 61.2173 75.3814 66.0697C75.1026 70.9221 72.9786 75.4843 69.4446 78.8211C65.9105 82.1579 61.2342 84.0168 56.3738 84.0168C51.5134 84.0168 46.8371 82.1579 43.3031 78.8211C39.7691 75.4843 37.6451 70.9221 37.3663 66.0697C37.0875 61.2173 38.6749 56.442 41.8035 52.7225C44.9321 49.0029 49.3648 46.6207 54.1932 46.0641L41.6425 22.4515L19.2001 12.7725V31.0669L32.389 36.4915C26.6689 41.4914 22.6105 48.1174 20.7555 55.4847C18.9005 62.8521 19.3371 70.6098 22.0075 77.7223C24.6778 84.8348 29.4546 90.9635 35.6998 95.2896C41.945 99.6158 49.3615 101.934 56.9587 101.934C64.556 101.934 71.9724 99.6158 78.2177 95.2896C84.4629 90.9635 89.2397 84.8348 91.91 77.7223C94.5803 70.6098 95.0173 62.8521 93.1623 55.4847C91.3073 48.1174 87.2486 41.4914 81.5285 36.4915H80.6778Z" fill="#FFB71B"/>
</g>
<defs>
<clipPath id="clip0_1265_2134">
<rect width="74.6667" height="92.2165" fill="white" transform="translate(18.6666 9.89209)"/>
</clipPath>
</defs>
</svg>
