<svg width="112" height="112" viewBox="0 0 112 112" fill="none" xmlns="http://www.w3.org/2000/svg">
<g clip-path="url(#clip0_1265_2128)">
<path d="M53.7102 5.40494C43.7023 5.8588 34.0539 9.27072 25.9853 15.209C17.9168 21.1473 11.7907 29.3453 8.38213 38.7658C4.97352 48.1863 4.43546 58.4061 6.83607 68.1325C9.23668 77.8588 14.4681 86.6546 21.8685 93.4073C29.2689 100.16 38.5058 104.566 48.4107 106.068C58.3157 107.571 68.4436 106.101 77.5134 101.846C86.5832 97.5917 94.1874 90.7424 99.3639 82.1652C104.54 73.5881 107.057 63.6683 106.595 53.6608C106.298 47.0154 104.693 40.4938 101.874 34.4687C99.055 28.4437 95.0758 23.0334 90.1643 18.5472C85.2528 14.061 79.5052 10.5868 73.2502 8.32334C66.9951 6.05985 60.3553 5.05143 53.7102 5.35573V5.40494Z" fill="url(#paint0_radial_1265_2128)"/>
<path d="M53.6855 4.71705C43.5424 5.17559 33.7629 8.63187 25.5842 14.6487C17.4055 20.6656 11.1948 28.9727 7.73766 38.5196C4.28049 48.0664 3.73217 58.4241 6.16199 68.2826C8.59182 78.1411 13.8907 87.0576 21.3884 93.9044C28.8861 100.751 38.2458 105.221 48.2838 106.748C58.3219 108.275 68.5874 106.79 77.7819 102.483C86.9763 98.1751 94.6868 91.2376 99.9382 82.5475C105.19 73.8575 107.746 63.8052 107.284 53.6622C106.664 40.0629 100.671 27.2658 90.6207 18.0834C80.5703 8.90095 67.2854 4.08443 53.6855 4.69241V4.71705ZM59.6928 54.524C68.827 62.9441 73.8249 67.4742 73.8249 67.4742C89.902 80.8676 84.4116 93.104 78.2566 97.3633C73.3098 100.662 67.5097 102.45 61.564 102.509C61.3582 102.54 61.1482 102.529 60.9466 102.478C60.745 102.426 60.5559 102.334 60.3905 102.208C60.225 102.082 60.0868 101.923 59.9838 101.742C59.8809 101.561 59.8154 101.362 59.7913 101.155C59.7913 99.9977 61.4409 99.7022 61.4409 99.7022C76.6317 96.7232 72.1754 86.7519 66.8081 81.6802C64.5677 79.5382 43.4188 61.2945 43.4188 61.2945C23.2794 44.0603 24.8798 30.396 24.8798 30.396C25.8399 13.7281 40.4398 9.59186 51.4943 10.5521C52.7746 10.6752 53.4885 11.463 53.267 12.5217C53.0454 13.5804 51.3219 13.802 51.3219 13.802C48.1644 13.7199 45.0405 14.467 42.2617 15.9686C33.3738 21.9513 36.0081 32.1441 47.8751 43.4694C49.3523 44.8974 50.9527 46.3993 52.5776 47.9257C52.5776 47.9257 54.9657 50.0184 59.6928 54.524ZM52.7992 97.6095C52.7992 99.2591 48.9338 99.9484 44.4283 99.5052C37.6913 99.026 31.2752 96.4423 26.0861 92.1192C21.0926 87.623 17.4807 81.7994 15.6718 75.3281C13.9976 69.5177 13.2098 62.7471 16.0657 63.2641C16.9028 63.4365 18.38 67.1788 19.9557 69.887C21.0102 71.9166 22.4581 73.716 24.215 75.1804C24.7813 75.5989 26.677 71.2904 29.533 68.853C31.1579 67.4989 32.9552 67.0311 33.2506 71.0688C33.5953 75.9929 32.709 81.9017 34.137 81.9017C35.565 81.9017 38.544 80.8677 45.2162 80.3014C47.6782 80.1045 49.1553 80.5722 46.7672 83.9452C45.0218 86.6027 42.7918 88.9079 40.1936 90.7404C45.8809 96.0092 52.6761 95.3691 52.7992 97.6095ZM57.2801 45.9069C56.8255 43.7945 56.7587 41.6171 57.0831 39.4809C57.7561 35.113 59.0841 30.8717 61.0223 26.9C63.4844 21.065 57.7232 17.6427 58.5603 15.5008C59.8406 12.5956 63.8783 16.2886 68.4084 16.5594C72.2738 16.781 74.6128 16.5594 77.6165 16.978C81.605 17.5196 86.3813 18.8491 88.4986 21.3604C90.616 23.8717 87.4892 26.4322 83.8946 24.6842C81.2849 23.4039 77.9858 24.1918 79.9062 26.9246C81.3512 28.7377 83.4426 29.9202 85.7412 30.2237C92.2655 31.9472 92.4133 38.2007 87.9816 41.4506C82.9344 45.119 77.8627 43.6172 75.8192 36.3788C74.7851 32.7596 72.2246 30.9377 69.6149 31.9471C67.0051 32.9565 68.5561 37.7329 70.5504 42.1153C74.4896 52.2096 64.6662 51.9634 63.5337 51.7419C62.0522 51.437 60.684 50.7283 59.5803 49.6942C58.4766 48.66 57.6805 47.3407 57.2801 45.8822V45.9069Z" fill="url(#paint1_radial_1265_2128)"/>
</g>
<defs>
<radialGradient id="paint0_radial_1265_2128" cx="0" cy="0" r="1" gradientUnits="userSpaceOnUse" gradientTransform="translate(63.9065 39.4194) scale(48.1177 48.1177)">
<stop stop-color="white"/>
<stop offset="1" stop-color="#CF9C51"/>
</radialGradient>
<radialGradient id="paint1_radial_1265_2128" cx="0" cy="0" r="1" gradientUnits="userSpaceOnUse" gradientTransform="translate(51.9946 24.7708) scale(107.784 107.784)">
<stop stop-color="#00C0F3"/>
<stop offset="0.22" stop-color="#0097D6"/>
<stop offset="0.28" stop-color="#0086CA"/>
<stop offset="0.37" stop-color="#0074BD"/>
<stop offset="0.46" stop-color="#0069B5"/>
<stop offset="0.57" stop-color="#0066B3"/>
</radialGradient>
<clipPath id="clip0_1265_2128">
<rect width="102.667" height="102.667" fill="white" transform="translate(4.66663 4.6665)"/>
</clipPath>
</defs>
</svg>
