<svg width="112" height="112" viewBox="0 0 112 112" fill="none" xmlns="http://www.w3.org/2000/svg">
<g clip-path="url(#clip0_1265_2130)">
<path d="M106.588 55.988C106.593 66.0367 103.617 75.8611 98.0369 84.2182C92.457 92.5754 84.5238 99.0899 75.2408 102.937C65.9578 106.785 55.7423 107.793 45.8864 105.834C36.0305 103.874 26.9771 99.036 19.8715 91.9304C12.766 84.8249 7.92751 75.7715 5.96823 65.9156C4.00894 56.0597 5.01687 45.8441 8.8645 36.5612C12.7121 27.2782 19.2265 19.345 27.5837 13.765C35.9408 8.18513 45.7652 5.20926 55.814 5.21387C69.2782 5.22005 82.1892 10.5714 91.7099 20.0921C101.231 29.6127 106.582 42.5237 106.588 55.988V55.988Z" fill="white"/>
<path d="M55.8135 104.362C65.381 104.362 74.7336 101.525 82.6887 96.2093C90.6437 90.8939 96.844 83.3389 100.505 74.4997C104.167 65.6605 105.125 55.9341 103.258 46.5505C101.392 37.1669 96.7843 28.5474 90.0191 21.7822C83.2539 15.017 74.6345 10.4098 65.2508 8.54328C55.8672 6.67676 46.1407 7.63473 37.3015 11.296C28.4623 14.9574 20.9074 21.1576 15.592 29.1127C10.2766 37.0677 7.43945 46.4203 7.43945 55.9878C7.43945 68.8174 12.536 81.1215 21.6079 90.1934C30.6798 99.2653 42.9839 104.362 55.8135 104.362V104.362Z" fill="#0083CA"/>
<mask id="mask0_1265_2130" style="mask-type:alpha" maskUnits="userSpaceOnUse" x="7" y="7" width="98" height="98">
<path d="M55.8136 104.362C65.3811 104.362 74.7337 101.525 82.6888 96.2093C90.6439 90.8939 96.8441 83.3389 100.505 74.4997C104.167 65.6605 105.125 55.9341 103.258 46.5505C101.392 37.1669 96.7845 28.5474 90.0192 21.7822C83.254 15.017 74.6346 10.4098 65.2509 8.54328C55.8673 6.67676 46.1409 7.63473 37.3017 11.296C28.4625 14.9574 20.9075 21.1576 15.5921 29.1127C10.2767 37.0677 7.43958 46.4203 7.43958 55.9878C7.43958 68.8174 12.5361 81.1215 21.608 90.1934C30.6799 99.2653 42.984 104.362 55.8136 104.362V104.362Z" fill="#0083CA"/>
</mask>
<g mask="url(#mask0_1265_2130)">
<path d="M55.9766 79.3592C77.2276 79.3592 95.4495 85.2778 103.256 93.6664C105.955 87.4946 107.344 80.8295 107.333 74.0931C107.333 60.4786 101.925 47.4218 92.2981 37.795C82.6712 28.1681 69.6144 22.7598 55.9999 22.7598C42.3855 22.7598 29.3286 28.1681 19.7018 37.795C10.0749 47.4218 4.66655 60.4786 4.66655 74.0931C4.65686 80.827 6.0372 87.4904 8.72107 93.6664C16.5038 85.2778 34.7023 79.3592 55.9766 79.3592Z" fill="#0083CA"/>
<path d="M55.9766 79.408C77.181 79.408 95.3562 85.28 103.139 93.6219C105.82 87.4943 107.201 80.8769 107.193 74.1884C107.193 46.6693 84.2414 24.2998 55.93 24.2998C27.6186 24.2998 4.66655 46.6693 4.66655 74.1884C4.65731 80.8772 6.03803 87.4949 8.72107 93.6219C16.597 85.28 34.7023 79.408 55.9766 79.408Z" fill="#0085CB"/>
<path d="M55.9766 79.4527C77.1111 79.4527 95.2397 85.3013 102.999 93.5501C105.677 87.4788 107.058 80.9153 107.054 74.2797C107.054 46.9703 84.1482 24.7173 55.9766 24.7173C27.8051 24.7173 4.89959 46.9936 4.89959 74.2797C4.88978 80.9159 6.27101 87.4805 8.95411 93.5501C16.6902 85.3013 34.8188 79.4527 55.9766 79.4527Z" fill="#0086CC"/>
<path d="M55.9533 79.5223C77.0412 79.5223 95.1466 85.3011 102.883 93.5032C105.548 87.5181 106.929 81.0408 106.937 74.4891C106.937 47.4127 84.1016 25.2529 55.9767 25.2529C27.8517 25.2529 5.06275 47.4127 5.06275 74.4891C5.04763 81.0709 6.42129 87.5817 9.09394 93.5964C16.7835 85.3011 34.8654 79.5223 55.9533 79.5223Z" fill="#0088CC"/>
<path d="M55.9533 79.5692C76.9247 79.5692 95.0301 85.3014 102.743 93.4336C105.41 87.4748 106.784 81.0181 106.774 74.4894C106.774 47.6227 84.0084 25.5562 55.9533 25.5562C27.8982 25.5562 5.15593 47.5994 5.15593 74.4894C5.14664 81.0155 6.51225 87.4704 9.1638 93.4336C16.8766 85.3014 34.912 79.5692 55.9533 79.5692Z" fill="#0089CD"/>
<path d="M55.9533 79.6154C76.9247 79.6154 94.9135 85.301 102.556 93.3633C105.205 87.4567 106.571 81.0555 106.564 74.5823C106.564 47.9253 83.8453 25.9985 55.8834 25.9985C27.9215 25.9985 5.22585 47.9486 5.22585 74.5823C5.22028 81.053 6.57793 87.4523 9.21039 93.3633C16.9698 85.301 34.9819 79.6154 55.9533 79.6154Z" fill="#008BCE"/>
<path d="M55.9534 79.6854C76.9248 79.6854 94.8204 85.3011 102.556 93.3169C105.202 87.4585 106.568 81.1036 106.564 74.6756C106.564 48.2517 83.9152 26.4414 56.0233 26.4414C28.1313 26.4414 5.48218 48.2517 5.48218 74.6756C5.47948 81.101 6.83751 87.4541 9.4668 93.3169C17.0631 85.3011 35.0286 79.6854 55.9534 79.6854Z" fill="#008DCF"/>
<path d="M55.93 79.7321C76.9014 79.7321 94.7039 85.3245 102.37 93.247C104.997 87.441 106.356 81.1415 106.355 74.7688C106.355 48.5779 83.7754 26.8608 55.93 26.8608C28.0847 26.8608 5.52881 48.5779 5.52881 74.7688C5.52578 81.1417 6.88427 87.4417 9.51336 93.247C17.1563 85.3245 35.0751 79.7321 55.93 79.7321Z" fill="#008ED0"/>
<path d="M55.9301 79.7788C76.7384 79.7788 94.6107 85.3246 102.23 93.1772C104.87 87.4331 106.23 81.1838 106.215 74.8622C106.215 48.881 83.6822 27.3037 55.9301 27.3037C28.1779 27.3037 5.66867 48.9043 5.66867 74.8622C5.65558 81.1811 7.00673 87.4285 9.6299 93.1772C17.2495 85.3246 35.1218 79.7788 55.9301 79.7788Z" fill="#0090D0"/>
<path d="M55.93 79.8487C76.6683 79.8487 94.494 85.3246 102.114 93.1306C104.732 87.4296 106.083 81.2289 106.075 74.9554C106.075 49.3237 83.6122 27.7231 55.93 27.7231C28.2477 27.7231 5.78503 49.2072 5.78503 74.9554C5.78546 81.2279 7.13653 87.4268 9.74633 93.1306C17.3659 85.3246 35.1683 79.8487 55.93 79.8487Z" fill="#0092D1"/>
<path d="M55.93 79.8954C76.6218 79.8954 94.3776 85.3246 101.997 93.0607C104.602 87.4127 105.953 81.2681 105.958 75.0486C105.958 49.4169 83.5423 28.1426 55.93 28.1426C28.3176 28.1426 5.90161 49.5334 5.90161 75.0486C5.90203 81.2687 7.25357 87.4144 9.86283 93.0607C17.4591 85.3246 35.2149 79.8954 55.93 79.8954Z" fill="#0093D2"/>
<path d="M55.9067 79.9418C76.5519 79.9418 94.2844 85.3478 101.857 92.9907C104.463 87.401 105.815 81.309 105.819 75.1417C105.819 49.8362 83.4492 28.5386 55.9067 28.5386C28.3643 28.5386 6.04141 49.8129 6.04141 75.1417C6.0343 81.3076 7.37849 87.4002 9.97938 92.9907C17.5524 85.3478 35.2615 79.9418 55.9067 79.9418Z" fill="#0095D3"/>
<path d="M55.9068 80.0115C76.4821 80.0115 94.1679 85.3476 101.741 92.9439C104.337 87.4012 105.681 81.3552 105.679 75.2347C105.679 50.1622 83.3794 29.0044 55.9068 29.0044C28.4343 29.0044 6.15799 50.1622 6.15799 75.2347C6.15083 81.3557 7.49551 87.4027 10.096 92.9439C17.6457 85.3476 35.3082 80.0115 55.9068 80.0115Z" fill="#0097D4"/>
<path d="M55.9068 80.0583C76.4354 80.0583 94.0747 85.3477 101.601 92.8741C104.194 87.3964 105.539 81.4116 105.539 75.3513C105.539 50.4886 83.3094 29.4473 55.9068 29.4473C28.5041 29.4473 6.27442 50.4187 6.27442 75.3513C6.27241 81.4119 7.6175 87.3972 10.2124 92.8741C17.7388 85.3477 35.3548 80.0583 55.9068 80.0583Z" fill="#0098D5"/>
<path d="M55.8834 80.1048C76.3655 80.1048 93.9582 85.3477 101.485 92.8042C104.058 87.3787 105.395 81.4495 105.399 75.4445C105.399 50.7915 83.2161 29.8667 55.8834 29.8667C28.5507 29.8667 6.41419 50.8381 6.41419 75.4445C6.41273 81.4501 7.75011 87.3805 10.3289 92.8042C17.832 85.3477 35.4013 80.1048 55.8834 80.1048Z" fill="#009AD5"/>
<path d="M55.8834 80.1516C76.2956 80.1516 93.8417 85.3712 101.345 92.7578C103.915 87.3808 105.253 81.4977 105.259 75.5379C105.259 51.1179 83.1463 30.3096 55.8834 30.3096C28.6206 30.3096 6.53076 51.1179 6.53076 75.5379C6.53206 81.4983 7.86974 87.3826 10.4454 92.7578C17.9252 85.3712 35.448 80.1516 55.8834 80.1516Z" fill="#009CD6"/>
<path d="M55.8835 80.2215C76.249 80.2215 93.7485 85.3711 101.228 92.6878C103.78 87.3633 105.11 81.5357 105.12 75.6311C105.12 51.4441 83.0531 30.729 55.8835 30.729C28.7138 30.729 6.74048 51.4441 6.74048 75.6311C6.74473 81.5389 8.08288 87.3694 10.6551 92.6878C18.0184 85.3711 35.4946 80.2215 55.8835 80.2215Z" fill="#009ED7"/>
<path d="M55.8835 80.2681C76.1791 80.2681 93.632 85.3712 101.088 92.6179C103.65 87.3548 104.981 81.5778 104.98 75.7243C104.98 51.747 82.9832 31.1484 55.8835 31.1484C28.7838 31.1484 6.7405 51.747 6.7405 75.7243C6.73377 81.5784 8.0648 87.3567 10.6319 92.6179C18.1117 85.3712 35.5412 80.2681 55.8835 80.2681Z" fill="#00A0D8"/>
<path d="M55.8601 80.3146C76.1092 80.3146 93.5388 85.371 100.972 92.5712C103.515 87.3521 104.838 81.623 104.84 75.8174C104.84 52.0731 82.9133 31.5444 55.9068 31.5444C28.9003 31.5444 6.97351 52.0265 6.97351 75.8174C6.97342 81.6233 8.29626 87.3529 10.8416 92.5712C18.2049 85.371 35.5878 80.3146 55.8601 80.3146Z" fill="#00A1D9"/>
<path d="M55.86 80.3843C76.0625 80.3843 93.4222 85.3941 100.832 92.5011C103.374 87.3398 104.698 81.6638 104.7 75.9104C104.7 52.3991 82.82 32.0103 55.7669 32.0103C28.7138 32.0103 6.83362 52.3991 6.83362 75.9104C6.84441 81.6628 8.16733 87.337 10.7017 92.5011C18.3912 85.3941 35.6576 80.3843 55.86 80.3843Z" fill="#00A3DA"/>
<path d="M55.8602 80.4312C75.9927 80.4312 93.3058 85.3945 100.716 92.4315C103.232 87.3606 104.555 81.7813 104.584 76.1204C104.584 52.8189 82.7501 32.5698 55.8602 32.5698C28.9702 32.5698 7.15991 52.8189 7.15991 76.1204C7.18056 81.7796 8.49568 87.3589 11.0047 92.4315C18.3912 85.3945 35.7043 80.4312 55.8602 80.4312Z" fill="#00A5DB"/>
<path d="M55.8601 80.4775C75.9227 80.4775 93.1426 85.3941 100.576 92.3846C103.117 87.3229 104.442 81.7375 104.444 76.0735C104.444 53.0049 82.6801 32.8491 55.8601 32.8491C29.04 32.8491 7.27637 53.0049 7.27637 76.0735C7.27607 81.7351 8.5923 87.3191 11.1211 92.3846C18.3912 85.3941 35.7508 80.4775 55.8601 80.4775Z" fill="#00A7DC"/>
<path d="M55.8369 80.5477C75.8762 80.5477 93.1194 85.3944 100.459 92.315C102.978 87.3208 104.295 81.807 104.304 76.2136C104.304 53.3548 82.5871 33.3154 55.8369 33.3154C29.0867 33.3154 7.41626 53.3548 7.41626 76.2136C7.41735 81.8053 8.72597 87.3192 11.2377 92.315C18.5777 85.3944 35.7976 80.5477 55.8369 80.5477Z" fill="#00A9DD"/>
<path d="M55.8369 80.5943C75.8063 80.5943 93.0028 85.4177 100.32 92.2451C102.838 87.3092 104.156 81.8482 104.164 76.3068C104.164 53.6577 82.5172 33.7349 55.8369 33.7349C29.1566 33.7349 7.53271 53.6577 7.53271 76.3068C7.54199 81.8454 8.85093 87.3045 11.3542 92.2451C18.6709 85.4177 35.8441 80.5943 55.8369 80.5943Z" fill="#00ABDE"/>
<path d="M55.8369 80.6406C75.7597 80.6406 92.8863 85.4174 100.11 92.2914C102.607 87.3987 103.917 81.9862 103.931 76.4929C103.931 54.0768 82.354 34.2705 55.7436 34.2705C29.1333 34.2705 7.55603 54.0768 7.55603 76.4929C7.59248 81.9565 8.90928 87.3356 11.4008 92.1982C18.7874 85.4174 35.8907 80.6406 55.8369 80.6406Z" fill="#00ADDE"/>
<path d="M55.8135 80.6874C75.6897 80.6874 92.7697 85.3477 100.086 92.1284C102.593 87.2977 103.904 81.9356 103.908 76.4931C103.908 54.31 82.3773 34.5503 55.8368 34.5503C29.2963 34.5503 7.81226 54.2634 7.81226 76.4931C7.81711 81.9327 9.11919 87.2928 11.6104 92.1284C18.8805 85.4176 35.9372 80.6874 55.8135 80.6874Z" fill="#00AFDF"/>
<path d="M55.8135 80.7576C75.6198 80.7576 92.6766 85.4179 99.9467 92.0588C102.435 87.2805 103.737 81.9739 103.745 76.5866C103.745 54.6132 82.2841 35.0166 55.8135 35.0166C29.3429 35.0166 7.90552 54.6132 7.90552 76.5866C7.91017 81.9742 9.213 87.2814 11.7037 92.0588C18.9738 85.4179 35.9839 80.7576 55.8135 80.7576Z" fill="#00B1E0"/>
<path d="M55.8135 80.8038C75.5732 80.8038 92.5601 85.4641 99.8068 92.0119C102.294 87.2833 103.597 82.0222 103.605 76.6794C103.605 54.9391 82.2141 35.459 55.8135 35.459C29.4128 35.459 8.02197 54.9391 8.02197 76.6794C8.02701 82.0225 9.33048 87.2843 11.8201 92.0119C19.0669 85.4408 36.0305 80.8038 55.8135 80.8038Z" fill="#00B3E1"/>
<path d="M55.8136 80.8504C75.5034 80.8504 92.467 85.5108 99.6904 91.942C102.16 87.2662 103.455 82.0603 103.465 76.7727C103.465 55.242 82.121 35.8784 55.8136 35.8784C29.5061 35.8784 8.16187 55.2653 8.16187 76.7727C8.17218 82.0603 9.46771 87.2662 11.9368 91.942C19.1603 85.4409 36.0772 80.8504 55.8136 80.8504Z" fill="#0DB5E2"/>
<path d="M55.7902 80.9205C75.4334 80.9205 92.3503 85.441 99.5505 91.8722C102.018 87.2544 103.314 82.1016 103.325 76.866C103.325 55.5684 82.051 36.3213 55.7902 36.3213C29.5293 36.3213 8.27832 55.5684 8.27832 76.866C8.28978 82.1016 9.58596 87.2544 12.0532 91.8722C19.2533 85.441 36.1236 80.9205 55.7902 80.9205Z" fill="#19B7E3"/>
<path d="M55.7903 80.9671C75.3869 80.9671 92.2339 85.441 99.4341 91.8256C101.895 87.2641 103.192 82.1655 103.209 76.9825C103.209 56.0111 81.9812 36.7407 55.7903 36.7407C29.5993 36.7407 8.3949 55.8946 8.3949 76.9825C8.4092 82.1659 9.70602 87.2652 12.1697 91.8256C19.3466 85.441 36.1703 80.9671 55.7903 80.9671Z" fill="#21B9E4"/>
<path d="M55.7902 81.0138C75.3169 81.0138 92.1407 85.4644 99.3176 91.7558C101.759 87.2465 103.048 82.2036 103.069 77.0759C103.069 56.1044 81.888 37.1836 55.7902 37.1836C29.6925 37.1836 8.53467 56.1977 8.53467 77.0759C8.54512 82.2021 9.82608 87.2458 12.2629 91.7558C19.4398 85.4644 36.2169 81.0138 55.7902 81.0138Z" fill="#28BBE5"/>
<path d="M55.7901 81.1303C75.2935 81.1303 92.094 85.5576 99.2476 91.8024C101.691 87.3277 102.981 82.3142 102.999 77.2157C102.999 56.5006 81.8646 37.603 55.7901 37.603C29.7157 37.603 8.60449 56.5472 8.60449 77.2157C8.61183 82.3127 9.89345 87.327 12.3328 91.8024C19.4863 85.5576 36.2634 81.1303 55.7901 81.1303Z" fill="#37BDE6"/>
<path d="M55.7903 81.2697C75.2704 81.2697 92.0475 85.6504 99.1778 91.872C101.625 87.4238 102.915 82.4319 102.929 77.3551C102.929 56.7798 81.8181 37.9521 55.7903 37.9521C29.7624 37.9521 8.65125 56.7798 8.65125 77.3551C8.67604 82.4277 9.95694 87.4152 12.3795 91.872C19.5331 85.6504 36.2868 81.2697 55.7903 81.2697Z" fill="#43BFE6"/>
<path d="M55.7902 81.4799C75.247 81.4799 91.9775 85.8373 99.1311 92.0122C101.561 87.6002 102.843 82.6485 102.859 77.6118C102.859 57.153 81.8879 38.4419 55.7902 38.4419C29.6924 38.4419 8.72107 57.0831 8.72107 77.6118C8.73473 82.6489 10.0169 87.6013 12.4493 92.0122C19.5796 85.7441 36.3101 81.4799 55.7902 81.4799Z" fill="#4DC0E7"/>
<path d="M55.7902 81.4796C75.2237 81.4796 91.9309 85.8137 99.0612 91.942C101.501 87.5666 102.791 82.6443 102.813 77.6348C102.813 57.3159 81.8414 38.7212 55.7902 38.7212C29.7391 38.7212 8.79102 57.3625 8.79102 77.6348C8.80817 82.6389 10.0821 87.5585 12.496 91.942C19.6262 85.837 36.3334 81.4796 55.7902 81.4796Z" fill="#56C2E8"/>
<path d="M55.7901 81.6427C75.2003 81.6427 91.8843 85.9302 99.0146 92.0119C101.433 87.6711 102.715 82.7899 102.743 77.8212C102.743 57.642 81.7714 39.1406 55.7901 39.1406C29.8089 39.1406 8.86084 57.642 8.86084 77.8212C8.86727 82.7897 10.1425 87.6743 12.5658 92.0119C19.6728 85.9302 36.3566 81.6427 55.7901 81.6427Z" fill="#5EC4E8"/>
<path d="M55.7902 81.7595C75.1538 81.7595 91.8378 86.0237 98.9447 92.0821C101.372 87.7706 102.656 82.9094 102.673 77.9614C102.673 57.9221 81.7015 39.5371 55.7902 39.5371C29.8789 39.5371 8.90747 57.9221 8.90747 77.9614C8.92781 82.906 10.2026 87.7645 12.6124 92.0821C19.7427 86.1402 36.38 81.7595 55.7902 81.7595Z" fill="#65C6E9"/>
<path d="M55.7902 81.8757C75.1304 81.8757 91.7911 86.1166 98.898 92.1284C101.299 87.8579 102.574 83.0466 102.603 78.1475C102.603 58.2479 81.6316 39.9795 55.7902 39.9795C29.9487 39.9795 9.07056 58.178 9.07056 78.1008C9.0962 83.0004 10.3714 87.8125 12.7755 92.0818C19.7893 86.1399 36.4266 81.8757 55.7902 81.8757Z" fill="#6DC7EA"/>
<path d="M55.7902 81.9924C75.1071 81.9924 91.7445 86.2099 98.8281 92.1751C101.248 87.9122 102.524 83.096 102.533 78.1942C102.533 58.4112 81.5617 40.2593 55.7902 40.2593C30.0186 40.2593 9.07056 58.4811 9.07056 78.2641C9.07136 83.164 10.3396 87.9803 12.7522 92.245C19.8358 86.14 36.4499 81.9924 55.7902 81.9924Z" fill="#74C9EA"/>
<path d="M55.7902 82.132C75.0839 82.132 91.6979 86.3029 98.7816 92.2448C101.176 88.0224 102.452 83.2578 102.487 78.4037C102.487 58.7605 81.5151 40.7251 55.8834 40.7251C30.2517 40.7251 9.28027 58.7838 9.28027 78.4037C9.29355 83.2577 10.5619 88.0257 12.962 92.2448C19.8825 86.3029 36.4732 82.132 55.7902 82.132Z" fill="#7ACBEB"/>
<path d="M55.7902 82.2488C75.0606 82.2488 91.6514 86.3965 98.7117 92.2918C101.115 88.1154 102.392 83.3859 102.417 78.5672C102.417 59.0638 81.4453 41.1216 55.8136 41.1216C30.1818 41.1216 9.21045 59.0638 9.21045 78.5672C9.23535 83.3828 10.5036 88.1103 12.8921 92.2918C19.9292 86.3965 36.4965 82.2488 55.7902 82.2488Z" fill="#81CDEC"/>
<path d="M55.7902 82.3652C75.0373 82.3652 91.6047 86.4895 98.6651 92.3382C101.051 88.1895 102.32 83.4926 102.347 78.7068C102.347 59.3432 81.4918 41.4243 55.7436 41.4243C29.9954 41.4243 9.1405 59.2733 9.1405 78.7068C9.15373 83.4945 10.4232 88.1949 12.8221 92.3382C19.9757 86.4895 36.5198 82.3652 55.7902 82.3652Z" fill="#87CFEC"/>
<path d="M55.7902 82.5048C75.0139 82.5048 91.5348 86.5825 98.5952 92.3846C100.982 88.2703 102.252 83.603 102.277 78.8464C102.277 59.6226 81.4452 41.8901 55.7902 41.8901C30.1351 41.8901 9.30359 59.6226 9.30359 78.8464C9.32058 83.6011 10.5818 88.2685 12.962 92.3846C20.0223 86.5825 36.5431 82.5048 55.7902 82.5048Z" fill="#8ED1ED"/>
<path d="M55.7902 82.6216C74.9907 82.6216 91.4882 86.6761 98.5486 92.4549C100.929 88.3718 102.199 83.7362 102.23 79.0099C102.23 59.9026 81.4219 42.2866 55.7902 42.2866C30.1585 42.2866 9.37354 59.9259 9.37354 79.0099C9.39376 83.7347 10.6554 88.3712 13.0319 92.4549C20.069 86.6761 36.5897 82.6216 55.7902 82.6216Z" fill="#94D3EE"/>
<path d="M55.7902 82.738C74.9673 82.738 91.4416 86.7691 98.4786 92.5013C100.903 88.4647 102.213 83.8576 102.277 79.1495C102.277 60.1821 81.4918 42.6826 55.9067 42.6826C30.3216 42.6826 9.53662 60.2054 9.53662 79.1495C9.55674 83.845 10.8188 88.4514 13.1949 92.5013C20.1155 86.7691 36.613 82.738 55.7902 82.738Z" fill="#9AD5EF"/>
<path d="M55.7902 82.8544C74.9441 82.8544 91.395 86.8622 98.4087 92.5478C100.788 88.5404 102.058 83.9727 102.09 79.3125C102.09 60.4849 81.352 43.0786 55.7902 43.0786C30.2284 43.0786 9.48999 60.4849 9.48999 79.3125C9.51064 83.9712 10.7735 88.5399 13.1484 92.5478C20.1621 86.8622 36.6363 82.8544 55.7902 82.8544Z" fill="#A0D7F0"/>
<path d="M55.7902 82.994C74.9208 82.994 91.3484 86.9553 98.3622 92.5943C100.725 88.6154 101.988 84.0798 102.021 79.4522C102.021 60.811 81.3054 43.4746 55.7902 43.4746C30.275 43.4746 9.55994 60.7644 9.55994 79.4522C9.57316 84.0793 10.8285 88.6181 13.195 92.5943C20.2087 86.9553 36.6596 82.994 55.7902 82.994Z" fill="#A6D9F0"/>
<path d="M55.7901 83.1109C74.8974 83.1109 91.3018 87.0489 98.2922 92.6646C100.672 88.7175 101.944 84.2015 101.974 79.5924C101.974 60.9511 81.282 43.8711 55.7901 43.8711C30.2982 43.8711 9.62976 61.0676 9.62976 79.5924C9.64521 84.1972 10.9009 88.7128 13.2648 92.6646C20.2553 87.0489 36.6829 83.1109 55.7901 83.1109Z" fill="#ACDCF1"/>
<path d="M55.7902 83.2273C74.8509 83.2273 91.2552 87.142 98.2456 92.711C100.604 88.7983 101.867 84.3237 101.904 79.7553C101.904 61.3238 81.2355 44.2671 55.7902 44.2671C30.3449 44.2671 9.69971 61.3471 9.69971 79.7553C9.71984 84.3197 10.9674 88.7946 13.3115 92.711C20.3253 87.142 36.7062 83.2273 55.7902 83.2273Z" fill="#B2DEF2"/>
<path d="M55.7902 83.3436C74.8275 83.3436 91.2085 87.235 98.1757 92.6642C100.534 88.7856 101.798 84.3409 101.834 79.8018C101.834 61.5333 81.1889 44.5698 55.7902 44.5698C30.3915 44.5698 9.74634 61.5333 9.74634 79.8018C9.76003 84.3408 11.0172 88.7894 13.3814 92.6642C20.3718 87.235 36.7528 83.3436 55.7902 83.3436Z" fill="#B8E0F3"/>
<path d="M55.7902 83.4835C74.8043 83.4835 91.162 87.3282 98.1292 92.8041C100.473 88.9545 101.729 84.5416 101.764 80.0349C101.764 61.8829 81.1656 45.0825 55.7902 45.0825C30.4148 45.0825 9.81628 61.9295 9.81628 80.0349C9.83629 84.5438 11.0937 88.9607 13.4513 92.8041C20.4185 87.3282 36.7761 83.4835 55.7902 83.4835Z" fill="#BDE2F4"/>
<path d="M55.7903 83.6004C74.781 83.6004 91.1154 87.4218 98.0593 92.921C100.405 89.1065 101.662 84.7228 101.694 80.2449C101.694 62.2328 81.119 45.479 55.7903 45.479C30.4615 45.479 9.88623 62.2561 9.88623 80.2449C9.90673 84.7213 11.156 89.1061 13.4979 92.921C20.4651 87.4218 36.7995 83.6004 55.7903 83.6004Z" fill="#C3E5F5"/>
<path d="M55.7902 83.8097C74.7576 83.8097 91.0455 87.6079 98.0127 93.0138C100.347 89.2288 101.604 84.878 101.648 80.431C101.648 62.5587 81.0957 45.9214 55.7902 45.9214C30.4847 45.9214 9.95605 62.582 9.95605 80.431C9.96861 84.876 11.2106 89.2308 13.5445 93.0138C20.5117 87.5146 36.8227 83.8097 55.7902 83.8097Z" fill="#C9E7F5"/>
<path d="M55.7902 83.8097C74.7344 83.8097 90.9989 87.5613 97.9428 92.9207C100.276 89.1777 101.533 84.8646 101.578 80.4543C101.578 62.6985 81.0491 46.1777 55.7902 46.1777C30.5313 46.1777 10.0027 62.8383 10.0027 80.5009C10.0243 84.9113 11.275 89.2284 13.6145 92.9672C20.5583 87.6079 36.8461 83.8097 55.7902 83.8097Z" fill="#CEE9F6"/>
<path d="M55.7901 83.973C74.711 83.973 90.9522 87.7013 97.8961 93.0373C100.219 89.3166 101.468 85.0268 101.508 80.6409C101.508 63.0482 81.0257 46.6206 55.7901 46.6206C30.5546 46.6206 10.0725 63.0482 10.0725 80.6409C10.0925 85.0654 11.3605 89.3945 13.7309 93.1305C20.7213 87.7013 36.8693 83.973 55.7901 83.973Z" fill="#D4ECF7"/>
<path d="M55.7902 84.0894C74.6878 84.0894 90.9056 87.7943 97.733 93.0838C100.06 89.4079 101.311 85.1541 101.345 80.8039C101.345 63.3277 80.886 47.0166 55.6971 47.0166C30.5081 47.0166 10.0493 63.3277 10.0493 80.8039C10.0854 85.1783 11.362 89.4527 13.7309 93.1304C20.7214 87.7943 37.0325 84.0894 55.7902 84.0894Z" fill="#DAEEF8"/>
<path d="M55.7902 84.2057C74.6644 84.2057 90.859 87.8874 97.733 93.1302C100.06 89.4878 101.32 85.2657 101.368 80.9435C101.368 63.6072 80.9093 47.4126 55.7669 47.4126C30.6245 47.4126 10.1891 63.7237 10.1891 80.9435C10.2059 85.2572 11.433 89.4796 13.7309 93.1302C20.7214 87.8874 37.0324 84.2057 55.7902 84.2057Z" fill="#DFF1F9"/>
<path d="M55.7902 84.3459C74.6411 84.3459 90.7425 87.981 97.733 93.1772C100.055 89.5681 101.307 85.3751 101.345 81.0837C101.345 63.8872 80.9326 47.8091 55.8135 47.8091C30.6944 47.8091 10.2822 63.9105 10.2822 81.0837C10.3 85.3747 11.5451 89.571 13.8707 93.1772C20.7213 87.981 37.0324 84.3459 55.7902 84.3459Z" fill="#E5F3FA"/>
<path d="M55.7903 84.4623C74.6179 84.4623 90.7426 88.074 97.7331 93.247C100.047 89.6689 101.3 85.5078 101.345 81.2467C101.345 64.1899 80.956 48.2051 55.8835 48.2051C30.811 48.2051 10.4221 64.1899 10.4221 81.2467C10.4506 85.5036 11.6869 89.665 13.9873 93.247C20.7214 88.074 37.0325 84.4623 55.7903 84.4623Z" fill="#EBF6FB"/>
<path d="M55.7902 84.5787C74.5945 84.5787 90.7425 88.1671 97.5932 93.2935C99.8919 89.7439 101.136 85.615 101.182 81.3864C101.182 64.4694 80.8394 48.6011 55.7902 48.6011C30.741 48.6011 10.3988 64.4694 10.3988 81.4796C10.4243 85.7078 11.6616 89.8401 13.9639 93.3867C20.8379 88.1671 37.0324 84.5787 55.7902 84.5787Z" fill="#F1F8FD"/>
<path d="M55.7902 84.6952C74.5713 84.6952 90.7426 88.2603 97.5233 93.3401C99.841 89.8167 101.088 85.6969 101.112 81.4796C101.112 64.6792 80.7928 48.8574 55.7902 48.8574C30.7877 48.8574 10.4688 64.6326 10.4688 81.4796C10.49 85.6688 11.7198 89.7628 14.0106 93.2702C20.9078 88.2604 37.0325 84.6952 55.7902 84.6952Z" fill="#F7FBFE"/>
<path d="M55.7902 84.8352C74.4314 84.8352 90.6027 88.3537 97.4767 93.4101C99.7571 89.9471 101.002 85.9053 101.065 81.7593C101.065 65.0987 80.7694 49.4634 55.7902 49.4634C30.8109 49.4634 10.5153 65.122 10.5153 81.7593C10.5584 85.905 11.7962 89.9502 14.0804 93.4101C20.9544 88.4702 37.0324 84.8352 55.7902 84.8352Z" fill="white"/>
<path d="M55.7902 68.1978C40.7087 68.0589 25.7211 70.5831 11.5172 75.6543C15.3211 84.1974 21.5197 91.4548 29.3627 96.548C37.2058 101.641 46.357 104.352 55.7087 104.352C65.0603 104.352 74.2115 101.641 82.0546 96.548C89.8976 91.4548 96.0962 84.1974 99.9001 75.6543C85.7494 70.5954 70.8174 68.0713 55.7902 68.1978V68.1978Z" fill="#0083CA"/>
</g>
</g>
<defs>
<clipPath id="clip0_1265_2130">
<rect width="102.667" height="101.571" fill="white" transform="translate(4.66663 5.21387)"/>
</clipPath>
</defs>
</svg>
